<svg id="Capa_1" data-name="Capa 1" xmlns="http://www.w3.org/2000/svg" viewBox="0 0 510.86 464.03"><defs><style>.cls-1{fill:#20a4d2;}.cls-2{fill:#42444c;}.cls-3{fill:#108fb1;}.cls-4{fill:#fefefe;}.cls-5{fill:#2c2e35;}.cls-6{fill:#2b5b6f;}</style></defs><path class="cls-1" d="M1,334.1V58.74c1.49-6.91,2.3-13.81,7.56-19.57C16.91,30,26.94,25.11,39.14,24.65c9.3-.36,18.62-.1,27.92-.1q109,0,217.94,0c3.62,0,7.33-.6,10.82,1,3.07,2.61,1.66,5.78.92,8.75-5.4,21.9-11.06,43.74-16.84,65.55-2.84,10.72-4.94,21.63-8.36,32.2-3.51,1.85-7.14.54-10.71.32-27.82-1.74-48,11.5-49,41.33-.75,22.57-.47,45.19,0,67.78.27,14.32,5.72,26.48,18,34.84,1.36.93,2.89,1.7,3.33,3.51-1.86,12.61-6.2,24.63-9,37q-1.38,6-3,12c-.74,2.74-1.74,5.35-4.39,6.91-2.93.82-5.93.62-8.9.63q-98.29,0-196.58,0C7.77,336.34,3.87,337.37,1,334.1Z" transform="translate(-1 -24.46)"/><path class="cls-2" d="M511.6,334.11c0,9.93.58,19.89,0,29.78-1.16,19.41-19.05,35.72-37.49,35.12-1.75.84-3.6.42-5.4.42-45,0-90.05-.86-135,.26-48,1.2-95.93.14-143.88.75-2.64,0-5.35.32-7.71-1.35-1.15.09-2.31.26-3.46.26-45.22,0-90.44-.22-135.65.11-22.47.17-37.9-14.38-41.16-31.23-.09-.44-.53-.8-.8-1.2V334.1H213c1.49,0,3-.1,4.48-.16,2.76-2.45,6.17-2.11,9.47-2.12q37.61,0,75.2,0,99.61,0,199.22.05C504.83,331.88,508.76,330.75,511.6,334.11Z" transform="translate(-1 -24.46)"/><path class="cls-3" d="M511.6,334.11H224.42c-2.32,0-4.65-.09-7-.15,4.05-15.85,8.07-31.72,12.21-47.55.56-2.15.39-4.73,2.66-6.19,2.13-2.11,4.35-.79,6.51-.14a60.45,60.45,0,0,0,30.91,1.13c21.15-4.63,29.1-17.94,31.2-36.25,2.48-21.64,1-43.42.91-65.14a66,66,0,0,0-3.21-21.05c-3.86-11.4-11.26-19.34-22.56-23.59-2-.75-4.27-1.13-4.79-3.76-1.15-1.88-.73-3.75-.22-5.74Q283.75,76.34,296.3,27c18.79-.05,37.57-.14,56.35-.16q59.36,0,118.71,0c23.66,0,40.4,16.76,40.4,40.44q0,131.19,0,262.38C511.76,331.13,511.66,332.62,511.6,334.11Z" transform="translate(-1 -24.46)"/><path class="cls-4" d="M271.29,131.41c22.54,6.84,32.24,20.09,32.61,46.78.3,22.26.86,44.54-.54,66.8C302,266.67,286.62,282.33,265,284.48c-11.32,1.13-22.15.06-32.66-4.27-15.48-8-22.1-21.57-22.7-38.15-.84-23.23-.65-46.48,0-69.72a45.21,45.21,0,0,1,8.15-25.2c10-14.23,24.8-17.27,40.76-17.28C262.77,129.86,267,130.86,271.29,131.41Z" transform="translate(-1 -24.46)"/><path class="cls-4" d="M128.64,225.35c6.81,0,12.92-.09,19,.05,2.64.06,2.93-1.28,2.91-3.39-.06-8-.08-16,0-23.95.07-7.26,4.74-11.47,12.64-11.6s13.2,4.29,13.3,11.55c.1,7.81.14,15.63,0,23.44-.07,3,.63,4,3.83,4,8.23,0,12.4,4.54,12.45,12.78.05,7.24-4.51,12.09-12.09,12.23-3.25.06-4.34,1-4.2,4.26.25,5.8.15,11.63,0,17.45-.14,7.19-5.56,11.88-13.28,11.68s-12.56-4.6-12.66-11.71c-.08-5.81-.21-11.64.05-17.45.15-3.38-1.09-4.23-4.27-4.19-12.63.14-25.27.1-37.9,0-12.07-.06-16.83-7.75-11.36-18.57q23.44-46.46,47.09-92.8c4.09-8,9.32-10.76,16.28-8.73,8.26,2.42,11.22,8.84,7.38,16.54q-16.9,33.87-34,67.67C132.2,218,130.58,221.4,128.64,225.35Z" transform="translate(-1 -24.46)"/><path class="cls-2" d="M156.64,472.79l13-34.91c2.46-1.25,5.12-1.3,7.79-1.3h158c2.67,0,5.33,0,7.78,1.31q6.48,17.44,12.95,34.9c-.92,1.7-2.54,2-4.24,2.11s-3.66.16-5.49.16q-90,0-180-.05C163.06,475,159.27,476.15,156.64,472.79Z" transform="translate(-1 -24.46)"/><path class="cls-5" d="M343.16,437.89c-1.74,1.38-3.81.95-5.76,1h-162c-2,0-4,.42-5.77-1q6.57-19,13.15-37.91c1.71-1,3.58-.49,5.36-.49q67.95,0,135.9,0c2,0,4.39-1,6,1.26Z" transform="translate(-1 -24.46)"/><path class="cls-5" d="M156.64,472.79H415.46a18.72,18.72,0,0,1,4,.22c3.85.87,6.23,3.46,6.32,7.32s-1.86,6.75-5.86,7.59a32,32,0,0,1-6.41.56q-157.1,0-314.19,0a35.56,35.56,0,0,1-5.93-.44c-4.27-.72-6.46-3.67-6.33-7.7.14-4.33,2.89-6.93,7.28-7.48a26.88,26.88,0,0,1,3.48-.07Z" transform="translate(-1 -24.46)"/><path class="cls-6" d="M330,400.76a10.77,10.77,0,0,0-4.86-.81l-142.4,0-.68-.88c7.14,0,14.28-.13,21.43-.13q132.79-.06,265.61-.09c1.66,0,3.31.09,5,.14-2,1.13-4.22.61-6.33.61q-66.11.06-132.23.08C333.69,399.7,331.51,398.72,330,400.76Z" transform="translate(-1 -24.46)"/><path class="cls-4" d="M353.62,225.35c7.05,0,13.3,0,19.55,0,2.67,0,2.24-1.86,2.25-3.45,0-7.64-.05-15.28,0-22.92.08-8,4.65-12.42,12.83-12.54,8.41-.11,13.13,4.32,13.23,12.61.09,7.48.15,15,0,22.43-.07,3,.79,4.2,3.92,3.91,5.19-.47,9.06,1.79,11.16,6.57,2.24,5.1,1.85,10.06-1.65,14.55a10.6,10.6,0,0,1-9.7,4c-2.89-.23-3.77,1-3.71,3.75.13,6,.14,12,0,18-.2,7.16-5.06,11.49-12.77,11.64s-13-4.41-13.23-11.72c-.16-5.82-.22-11.64,0-17.45.14-3.35-1.06-4.24-4.28-4.2-12.62.15-25.25.1-37.87,0-11.65,0-16.6-7.84-11.38-18.21q23.61-46.86,47.45-93.62c4.44-8.71,11.58-11.16,19.25-6.94,5.86,3.23,7.56,8.44,4.42,14.74-9.9,19.9-19.93,39.74-29.9,59.61C360.09,212.29,357,218.48,353.62,225.35Z" transform="translate(-1 -24.46)"/><path class="cls-3" d="M263.42,155.26c7.71,1.5,12.51,6.46,13.76,14.93A100.86,100.86,0,0,1,278,184.1c.09,16.46,0,32.92,0,49.37,0,2.33-.11,4.66-.33,7-1.6,17-15.85,25.22-31.62,18.22-3.42-1.53-6.26-3.71-7.67-7.36a34.67,34.67,0,0,1,1.28-13.69c6.4-24,12.44-48.07,18.67-72.1C259.29,161.86,259.13,157.37,263.42,155.26Z" transform="translate(-1 -24.46)"/><path class="cls-1" d="M263.42,155.26q-12,46.62-24,93.24c-.25.95-.65,1.87-1,2.8a20.37,20.37,0,0,1-3-11.37c0-21.45-.24-42.9,0-64.34C235.66,158.89,247,150.87,263.42,155.26Z" transform="translate(-1 -24.46)"/></svg>