<svg id="Capa_1" data-name="Capa 1" xmlns="http://www.w3.org/2000/svg" viewBox="0 0 1431.12 625.85"><defs><style>.cls-1,.cls-3,.cls-4,.cls-5,.cls-6{fill:#fff;}.cls-2,.cls-3,.cls-4,.cls-5,.cls-6{isolation:isolate;}.cls-3,.cls-4,.cls-5,.cls-6{font-size:139.43px;font-family:Mont-ExtraLightDEMO, Mont;font-weight:200;}.cls-4{letter-spacing:-0.1em;}.cls-5{letter-spacing:-0.05em;}.cls-6{letter-spacing:-0.01em;}</style></defs><path class="cls-1" d="M132.91,142.59l99.4,171.66,98.94-171.84h17l-.65,1.16.22,263.07H333l-.21-237.31L232.34,343.48l-100.89-174,.2,237.31H116.79l-.23-263.07-.66-1.16Z" transform="translate(-0.06 -0.01)"/><path class="cls-1" d="M529.91,142.24V157.1l-117.25.1.1,109.82,117.25-.1v14.87l-117.25.1.1,109.82,117.25-.1v14.86L398,406.58l-.23-264.22Z" transform="translate(-0.06 -0.01)"/><path class="cls-1" d="M590.19,142.52h1.15q65.24-.06,101.1,35.91,39.67,39.76,39.72,95.75,0,56.15-39.55,95.81-35.8,36-101,36.09h-1.15v.34H575.56l-.24-264.23h14.87Zm0,15.19.2,233.35h1.16q58.79-.06,90.31-31.79Q717,324.07,717,274.19q0-49.71-35.25-85-31.58-31.51-90.36-31.46Z" transform="translate(-0.06 -0.01)"/><path class="cls-1" d="M838.57,156.83l.22,249.37H823.93l-.22-249.36-66.88.05V142l148.62-.13,0,14.86Z" transform="translate(-0.06 -0.01)"/><path class="cls-1" d="M956.64,141.87l.23,264.22-14.87,0-.23-264.23Z" transform="translate(-0.06 -0.01)"/><path class="cls-1" d="M1026.49,141.81l99.4,171.66,98.94-171.84h17l-.65,1.16.23,263.07h-14.87l-.2-237.31L1125.92,342.7,1025,168.73l.21,237.31h-14.87L1010.14,143l-.66-1.16Z" transform="translate(-0.06 -0.01)"/><path class="cls-1" d="M1423.49,141.46v14.86l-117.25.11.1,109.81,117.25-.1V281l-117.25.1.1,109.82,117.25-.1v14.86l-132.11.11-.23-264.22Z" transform="translate(-0.06 -0.01)"/><g class="cls-2"><text class="cls-3" transform="matrix(1, 0, 0, 1, 387.48, 538.71)">CI</text><text class="cls-4" transform="matrix(1, 0, 0, 1, 530.53, 538.59)">T</text><text class="cls-5" transform="matrix(1, 0, 0, 1, 595.65, 538.53)">A</text><text class="cls-3" transform="matrix(1, 0, 0, 1, 687.81, 538.45)">S MEDI</text><text class="cls-6" transform="matrix(1, 0, 0, 1, 1150.85, 538.04)">C</text><text class="cls-5" transform="matrix(1, 0, 0, 1, 1257.65, 537.95)">A</text><text class="cls-3" transform="matrix(1, 0, 0, 1, 1349.81, 537.87)">S</text></g><path class="cls-1" d="M275.91,495.46c7.73-.22,15.48-.2,23.21.06a16.58,16.58,0,0,1,16.15,16.11c.27,7.73.28,15.49.05,23.22a16.61,16.61,0,0,1-16.4,16.33c-3.7.13-7.41,0-11.12,0s-7.42.06-11.13,0c-10-.16-17.16-6.92-17.51-16.82-.27-7.41-.23-14.84,0-22.25A16.87,16.87,0,0,1,275.91,495.46Z" transform="translate(-0.06 -0.01)"/><path class="cls-1" d="M201.44,551.28c-9.68-.14-16.75-7.09-16.9-16.74q-.19-11.09-.1-22.24a16.79,16.79,0,0,1,16-16.68c7.89-.22,15.79-.29,23.68,0,6.57.24,12.21,3.21,14.3,9.6,3.83,11.7,3.34,23.86.36,35.6-1.79,7-7.8,10.3-15.15,10.42-3.71.07-7.42,0-11.12,0h0C208.83,551.29,205.12,551.34,201.44,551.28Z" transform="translate(-0.06 -0.01)"/><path class="cls-1" d="M82.3,549.32c-6.2,3.58-12.92,1.62-19.39,2.13-4.19,0-8.39.23-12.57,0C43,551,36.28,545,35.47,537.92a128.24,128.24,0,0,1-.12-27.49,15.9,15.9,0,0,1,14.93-14.5,174.65,174.65,0,0,1,26.08.06A16,16,0,0,1,90.7,511.06c.27,8.21.24,16.43,0,24.65C90.61,541.75,87.63,546.24,82.3,549.32Z" transform="translate(-0.06 -0.01)"/><path class="cls-1" d="M109.85,511.74A16.17,16.17,0,0,1,124.55,496a164.73,164.73,0,0,1,26-.08A16,16,0,0,1,165.44,511a161.78,161.78,0,0,1,.05,25.1,16.24,16.24,0,0,1-15.83,15.23c-8.2.22-16.42.16-24.63-.07-5.74-.16-9.82-3.25-12.79-8.11-3.73-6.12-1.83-12.87-2.42-18C109.83,519.79,109.7,515.76,109.85,511.74Z" transform="translate(-0.06 -0.01)"/><path class="cls-1" d="M.44,550c0,10.11-.51,20.24.37,30.34,1.3,18,10.52,31,26,39.65a46.11,46.11,0,0,0,23.07,5.92q125.34-.14,250.67-.25c9.36,0,18.1-2.25,25.86-7.7a1.74,1.74,0,0,0,1.75-1c13.58-9.18,21.45-22.18,21.85-38.31.7-27.89.07-55.82,0-83.73V480.36l.05-3c0-13.83,0-27.67.15-41.51,0-2.49-.67-3.38-3.24-3.26a128.11,128.11,0,0,1-13,0c-2.59-.12-3.21.75-3.19,3.26.16,15.76.16,31.53.2,47.3v5.9c0,24.32-.27,48.64.12,72.95.14,8.61-3,14.1-11,17h0l-26.93.2h-6.83c-21,0-41.94-.13-62.92-.11-26.46,0-52.91.15-79.37.22h-2l-77.38-.12c-11.29,0-22.57,0-33.86.06C22.65,576.81,19.13,571,19,562.81h0q-.06-46.39-.13-92.79a33.73,33.73,0,0,0,.1-9.83q0-19.33-.07-38.68a31.46,31.46,0,0,0-.07-9.83.66.66,0,0,1-.28-.44l.28.44c.06-15.31.18-30.62.17-45.93,0-17.89-.13-35.78-.2-53.67h0q.63-20.85,0-41.68-.09-47.89-.19-95.79h0a62.68,62.68,0,0,0,0-12.7c.06-14.15.16-28.31.18-42.46V58.62C22.38,49.15,25.64,47,36.15,46.89c2.57,0,5.14-.19,7.71-.3,8.06.07,16.12.2,24.19.19q60-.11,120-.27c20.16.07,40.31.17,60.47.19h66.3c10.53,0,15.6,5.06,15.63,15.67,0,19,.12,38.07,0,57.1,0,3.26.65,4.65,4.19,4.36a77.44,77.44,0,0,1,11.6,0c3.12.23,3.69-1,3.67-3.85-.13-23.87,0-47.74-.17-71.62C349.49,22.29,326.65,0,300.49,0Q174.67.09,48.86.23C24.16.23,1.35,21.31.35,44.89h0C.25,63.11.07,81.34.06,99.56c0,15.64.2,31.28.3,46.92l.38-.64a1,1,0,0,1-.38.64,3.9,3.9,0,0,0,0,3c-.09,5.48-.25,11-.25,16.44q0,60,.1,120.06c0,1.28.17,2.56.26,3.84v4.87h0c-.06,13-.19,26-.18,39,0,24.43.15,48.87.23,73.3l.09,1.94c-.3,14.19-.47,28.37,0,42.56a6.06,6.06,0,0,0,0,3.9,28.88,28.88,0,0,0,0,9.64,11.9,11.9,0,0,0,0,5.87l-.06,1.89h0C.44,498.54.36,524.24.44,550Zm.77-391.07v-.68h0a1.93,1.93,0,0,0,.34,0c-.11.26-.24.45-.35.68Zm.62,248.06H1.42v-.28ZM1.34,144.71h0v-.11l.11.08H1.34ZM17.72,410.06l-.74-.18c.27-.07.52-.14.75-.22C17.73,409.79,17.72,409.93,17.72,410.06Z" transform="translate(-0.06 -0.01)"/></svg>